<svg t="1747981136299" class="icon" viewBox="0 0 1024 1024" version="1.1" xmlns="http://www.w3.org/2000/svg" p-id="18771" width="256" height="256"><path d="M359.703273 279.319273C289.559273 279.319273 232.727273 324.468364 232.727273 380.183273l0 403.362909c0-55.668364 56.832-100.817455 126.976-100.817455 70.097455 0 126.929455 45.149091 126.929455 100.817455L486.632727 380.183273C486.586182 324.468364 429.754182 279.319273 359.703273 279.319273zM512 0C229.236364 0 0 229.282909 0 512.046545s229.236364 512 512 512 512-229.236364 512-512S794.763636 0 512 0zM512 977.501091c-257.024 0-465.454545-208.430545-465.454545-465.454545s208.430545-465.454545 465.454545-465.454545 465.454545 208.430545 465.454545 465.454545S769.024 977.501091 512 977.501091zM664.296727 279.319273c-70.097455 0-126.976 45.149091-126.976 100.864l0 403.362909c0-55.668364 56.878545-100.817455 126.976-100.817455 70.144 0 126.976 45.149091 126.976 100.817455L791.272727 380.183273C791.272727 324.468364 734.440727 279.319273 664.296727 279.319273z" fill="#C16B3B" p-id="18772"></path></svg>